G04*
G04 #@! TF.GenerationSoftware,Altium Limited,Altium Designer,23.11.1 (41)*
G04*
G04 Layer_Color=65535*
%FSLAX44Y44*%
%MOMM*%
G71*
G04*
G04 #@! TF.SameCoordinates,592A46A6-0988-4030-B5AA-72920A26D4AC*
G04*
G04*
G04 #@! TF.FilePolarity,Positive*
G04*
G01*
G75*
%ADD10C,0.3000*%
%ADD11C,0.0200*%
G36*
X96616Y142833D02*
X96746Y142824D01*
X96903Y142814D01*
X97088Y142787D01*
X97291Y142759D01*
X97513Y142713D01*
X97744Y142657D01*
X97994Y142592D01*
X98243Y142509D01*
X98484Y142408D01*
X98733Y142287D01*
X98974Y142158D01*
X99196Y142001D01*
X99408Y141816D01*
X99417Y141807D01*
X99454Y141770D01*
X99510Y141714D01*
X99575Y141631D01*
X99658Y141529D01*
X99750Y141418D01*
X99852Y141270D01*
X99954Y141113D01*
X100055Y140938D01*
X100157Y140753D01*
X100250Y140540D01*
X100333Y140318D01*
X100398Y140078D01*
X100453Y139819D01*
X100490Y139551D01*
X100499Y139273D01*
Y139264D01*
Y139236D01*
Y139190D01*
Y139125D01*
X100490Y139051D01*
X100481Y138959D01*
X100471Y138857D01*
X100462Y138746D01*
X100425Y138497D01*
X100370Y138219D01*
X100287Y137923D01*
X100185Y137628D01*
Y137618D01*
X100166Y137591D01*
X100148Y137554D01*
X100129Y137489D01*
X100092Y137424D01*
X100046Y137341D01*
X100000Y137239D01*
X99944Y137138D01*
X99880Y137017D01*
X99806Y136888D01*
X99639Y136611D01*
X99436Y136315D01*
X99205Y136000D01*
X99196Y135991D01*
X99186Y135973D01*
X99159Y135945D01*
X99122Y135899D01*
X99066Y135834D01*
X99001Y135760D01*
X98927Y135677D01*
X98835Y135584D01*
X98733Y135473D01*
X98613Y135353D01*
X98484Y135215D01*
X98336Y135067D01*
X98179Y134909D01*
X98003Y134743D01*
X97809Y134558D01*
X97596Y134364D01*
X97587Y134355D01*
X97550Y134318D01*
X97485Y134262D01*
X97411Y134188D01*
X97319Y134105D01*
X97208Y134013D01*
X97097Y133902D01*
X96977Y133791D01*
X96727Y133550D01*
X96477Y133319D01*
X96366Y133208D01*
X96274Y133116D01*
X96181Y133023D01*
X96117Y132949D01*
X96108Y132931D01*
X96071Y132894D01*
X96006Y132820D01*
X95941Y132737D01*
X95858Y132635D01*
X95775Y132515D01*
X95691Y132395D01*
X95618Y132274D01*
X100499D01*
Y130000D01*
X91901D01*
Y130019D01*
X91910Y130056D01*
X91919Y130129D01*
X91938Y130222D01*
X91956Y130333D01*
X91984Y130471D01*
X92012Y130619D01*
X92058Y130786D01*
X92104Y130971D01*
X92169Y131165D01*
X92234Y131359D01*
X92308Y131572D01*
X92400Y131784D01*
X92502Y132006D01*
X92613Y132219D01*
X92733Y132441D01*
X92742Y132450D01*
X92770Y132496D01*
X92816Y132561D01*
X92872Y132654D01*
X92955Y132764D01*
X93066Y132903D01*
X93195Y133069D01*
X93343Y133254D01*
X93519Y133467D01*
X93713Y133698D01*
X93944Y133948D01*
X94194Y134225D01*
X94480Y134521D01*
X94785Y134826D01*
X95127Y135159D01*
X95497Y135510D01*
X95507Y135520D01*
X95516Y135529D01*
X95571Y135575D01*
X95654Y135658D01*
X95765Y135760D01*
X95895Y135889D01*
X96043Y136028D01*
X96200Y136185D01*
X96376Y136352D01*
X96718Y136703D01*
X96893Y136869D01*
X97051Y137045D01*
X97208Y137202D01*
X97337Y137350D01*
X97448Y137489D01*
X97531Y137600D01*
X97541Y137609D01*
X97550Y137637D01*
X97578Y137674D01*
X97615Y137729D01*
X97652Y137803D01*
X97689Y137877D01*
X97735Y137970D01*
X97790Y138071D01*
X97883Y138302D01*
X97957Y138552D01*
X98021Y138829D01*
X98031Y138968D01*
X98040Y139107D01*
Y139116D01*
Y139144D01*
Y139181D01*
X98031Y139246D01*
Y139310D01*
X98021Y139384D01*
X97984Y139569D01*
X97929Y139773D01*
X97855Y139985D01*
X97744Y140179D01*
X97670Y140281D01*
X97596Y140364D01*
X97587Y140374D01*
X97578Y140383D01*
X97550Y140401D01*
X97513Y140438D01*
X97467Y140466D01*
X97411Y140503D01*
X97346Y140549D01*
X97282Y140586D01*
X97106Y140669D01*
X96893Y140743D01*
X96653Y140790D01*
X96514Y140799D01*
X96376Y140808D01*
X96302D01*
X96246Y140799D01*
X96181D01*
X96108Y140780D01*
X95932Y140753D01*
X95738Y140697D01*
X95525Y140614D01*
X95433Y140559D01*
X95331Y140503D01*
X95239Y140429D01*
X95146Y140346D01*
X95137Y140337D01*
X95127Y140327D01*
X95100Y140300D01*
X95072Y140253D01*
X95035Y140207D01*
X94998Y140142D01*
X94961Y140069D01*
X94915Y139985D01*
X94869Y139883D01*
X94822Y139773D01*
X94776Y139643D01*
X94739Y139504D01*
X94702Y139347D01*
X94665Y139181D01*
X94647Y139005D01*
X94628Y138811D01*
X92187Y139051D01*
Y139061D01*
Y139079D01*
X92197Y139107D01*
Y139144D01*
X92206Y139190D01*
X92215Y139246D01*
X92243Y139384D01*
X92271Y139551D01*
X92317Y139736D01*
X92372Y139948D01*
X92437Y140170D01*
X92520Y140410D01*
X92613Y140651D01*
X92724Y140891D01*
X92853Y141132D01*
X92992Y141363D01*
X93158Y141575D01*
X93343Y141779D01*
X93546Y141955D01*
X93556Y141964D01*
X93602Y141992D01*
X93667Y142038D01*
X93750Y142093D01*
X93870Y142158D01*
X94000Y142232D01*
X94166Y142315D01*
X94342Y142398D01*
X94536Y142482D01*
X94758Y142565D01*
X94998Y142639D01*
X95248Y142703D01*
X95525Y142759D01*
X95812Y142805D01*
X96117Y142833D01*
X96431Y142842D01*
X96514D01*
X96616Y142833D01*
D02*
G37*
G36*
X150009Y134715D02*
X151600D01*
Y132570D01*
X150009D01*
Y130000D01*
X147633D01*
Y132570D01*
X142400D01*
Y134706D01*
X147948Y142842D01*
X150009D01*
Y134715D01*
D02*
G37*
G36*
X121660Y143055D02*
X121780Y143046D01*
X121938Y143027D01*
X122113Y142999D01*
X122307Y142972D01*
X122520Y142916D01*
X122751Y142861D01*
X122982Y142787D01*
X123223Y142685D01*
X123463Y142574D01*
X123703Y142445D01*
X123944Y142287D01*
X124166Y142112D01*
X124378Y141908D01*
X124388Y141899D01*
X124415Y141862D01*
X124461Y141816D01*
X124517Y141742D01*
X124591Y141649D01*
X124665Y141548D01*
X124748Y141428D01*
X124831Y141289D01*
X124915Y141141D01*
X124998Y140975D01*
X125072Y140799D01*
X125146Y140614D01*
X125201Y140420D01*
X125247Y140216D01*
X125275Y140004D01*
X125284Y139782D01*
Y139763D01*
Y139708D01*
X125275Y139625D01*
X125257Y139504D01*
X125229Y139356D01*
X125183Y139199D01*
X125127Y139015D01*
X125053Y138811D01*
X124951Y138608D01*
X124831Y138386D01*
X124683Y138164D01*
X124508Y137933D01*
X124295Y137711D01*
X124175Y137600D01*
X124045Y137498D01*
X123907Y137387D01*
X123759Y137285D01*
X123602Y137184D01*
X123435Y137091D01*
X123444D01*
X123482Y137082D01*
X123537Y137064D01*
X123620Y137045D01*
X123713Y137017D01*
X123814Y136971D01*
X123934Y136925D01*
X124064Y136869D01*
X124203Y136805D01*
X124351Y136731D01*
X124499Y136648D01*
X124637Y136546D01*
X124785Y136444D01*
X124924Y136315D01*
X125063Y136185D01*
X125192Y136037D01*
X125201Y136028D01*
X125220Y136000D01*
X125257Y135954D01*
X125294Y135889D01*
X125340Y135815D01*
X125395Y135714D01*
X125460Y135603D01*
X125525Y135483D01*
X125580Y135344D01*
X125645Y135196D01*
X125700Y135030D01*
X125747Y134854D01*
X125784Y134669D01*
X125821Y134475D01*
X125839Y134271D01*
X125848Y134059D01*
Y134040D01*
Y133985D01*
X125839Y133892D01*
X125830Y133772D01*
X125811Y133633D01*
X125784Y133458D01*
X125747Y133273D01*
X125691Y133069D01*
X125626Y132848D01*
X125543Y132617D01*
X125442Y132376D01*
X125331Y132136D01*
X125183Y131886D01*
X125016Y131646D01*
X124831Y131415D01*
X124609Y131183D01*
X124591Y131174D01*
X124554Y131137D01*
X124480Y131073D01*
X124388Y130998D01*
X124267Y130906D01*
X124129Y130814D01*
X123953Y130703D01*
X123768Y130592D01*
X123555Y130481D01*
X123324Y130379D01*
X123075Y130277D01*
X122797Y130185D01*
X122511Y130111D01*
X122206Y130056D01*
X121882Y130009D01*
X121549Y130000D01*
X121475D01*
X121383Y130009D01*
X121263Y130019D01*
X121115Y130028D01*
X120939Y130056D01*
X120754Y130083D01*
X120541Y130129D01*
X120319Y130176D01*
X120088Y130240D01*
X119848Y130324D01*
X119608Y130425D01*
X119367Y130536D01*
X119127Y130666D01*
X118896Y130823D01*
X118674Y130998D01*
X118665Y131008D01*
X118628Y131045D01*
X118563Y131100D01*
X118489Y131183D01*
X118406Y131276D01*
X118304Y131396D01*
X118193Y131544D01*
X118082Y131701D01*
X117962Y131877D01*
X117851Y132071D01*
X117740Y132293D01*
X117629Y132524D01*
X117537Y132764D01*
X117463Y133033D01*
X117398Y133310D01*
X117352Y133606D01*
X119728Y133902D01*
Y133892D01*
X119737Y133865D01*
Y133818D01*
X119755Y133754D01*
X119765Y133671D01*
X119792Y133587D01*
X119811Y133486D01*
X119848Y133384D01*
X119922Y133162D01*
X120033Y132931D01*
X120162Y132700D01*
X120246Y132598D01*
X120329Y132506D01*
X120338Y132496D01*
X120357Y132487D01*
X120384Y132459D01*
X120421Y132432D01*
X120467Y132395D01*
X120523Y132358D01*
X120671Y132274D01*
X120847Y132182D01*
X121050Y132108D01*
X121281Y132052D01*
X121401Y132043D01*
X121531Y132034D01*
X121605D01*
X121660Y132043D01*
X121725Y132052D01*
X121799Y132062D01*
X121974Y132108D01*
X122178Y132173D01*
X122280Y132219D01*
X122390Y132274D01*
X122501Y132339D01*
X122603Y132422D01*
X122705Y132506D01*
X122807Y132607D01*
X122816Y132617D01*
X122825Y132635D01*
X122853Y132663D01*
X122890Y132709D01*
X122927Y132774D01*
X122973Y132838D01*
X123019Y132922D01*
X123075Y133014D01*
X123121Y133125D01*
X123167Y133236D01*
X123213Y133365D01*
X123250Y133504D01*
X123287Y133652D01*
X123315Y133809D01*
X123324Y133985D01*
X123334Y134160D01*
Y134170D01*
Y134198D01*
Y134253D01*
X123324Y134318D01*
X123315Y134392D01*
X123306Y134484D01*
X123297Y134586D01*
X123269Y134688D01*
X123213Y134928D01*
X123121Y135168D01*
X123065Y135288D01*
X123001Y135409D01*
X122927Y135529D01*
X122834Y135631D01*
X122825Y135640D01*
X122816Y135658D01*
X122788Y135677D01*
X122742Y135714D01*
X122696Y135760D01*
X122640Y135806D01*
X122492Y135908D01*
X122317Y136000D01*
X122113Y136093D01*
X122002Y136130D01*
X121882Y136148D01*
X121753Y136167D01*
X121623Y136176D01*
X121540D01*
X121494Y136167D01*
X121438D01*
X121309Y136158D01*
X121142Y136130D01*
X120948Y136102D01*
X120736Y136056D01*
X120504Y135991D01*
X120772Y137988D01*
X120939D01*
X121022Y137997D01*
X121115Y138007D01*
X121226Y138016D01*
X121336Y138034D01*
X121586Y138081D01*
X121836Y138155D01*
X121965Y138210D01*
X122085Y138266D01*
X122196Y138330D01*
X122298Y138413D01*
X122307Y138423D01*
X122317Y138432D01*
X122344Y138460D01*
X122381Y138497D01*
X122418Y138543D01*
X122465Y138598D01*
X122511Y138663D01*
X122566Y138737D01*
X122659Y138913D01*
X122742Y139125D01*
X122779Y139236D01*
X122807Y139366D01*
X122816Y139495D01*
X122825Y139634D01*
Y139643D01*
Y139662D01*
Y139699D01*
X122816Y139745D01*
Y139800D01*
X122807Y139856D01*
X122779Y140004D01*
X122733Y140170D01*
X122659Y140337D01*
X122566Y140503D01*
X122437Y140660D01*
X122418Y140679D01*
X122363Y140725D01*
X122280Y140780D01*
X122159Y140854D01*
X122011Y140928D01*
X121836Y140984D01*
X121642Y141030D01*
X121411Y141048D01*
X121346D01*
X121309Y141039D01*
X121253D01*
X121189Y141030D01*
X121041Y140993D01*
X120874Y140938D01*
X120689Y140864D01*
X120504Y140753D01*
X120412Y140679D01*
X120329Y140605D01*
X120319Y140596D01*
X120310Y140586D01*
X120292Y140559D01*
X120255Y140521D01*
X120227Y140475D01*
X120181Y140420D01*
X120144Y140355D01*
X120098Y140281D01*
X120051Y140198D01*
X120005Y140105D01*
X119959Y140004D01*
X119913Y139883D01*
X119876Y139763D01*
X119839Y139634D01*
X119811Y139486D01*
X119792Y139338D01*
X117537Y139717D01*
Y139726D01*
X117546Y139773D01*
X117564Y139828D01*
X117583Y139911D01*
X117601Y140013D01*
X117638Y140124D01*
X117666Y140253D01*
X117712Y140383D01*
X117814Y140679D01*
X117934Y140993D01*
X118073Y141298D01*
X118156Y141437D01*
X118239Y141575D01*
X118249Y141585D01*
X118258Y141603D01*
X118286Y141640D01*
X118332Y141686D01*
X118378Y141751D01*
X118433Y141816D01*
X118507Y141890D01*
X118591Y141973D01*
X118674Y142056D01*
X118776Y142149D01*
X118886Y142241D01*
X119007Y142324D01*
X119136Y142417D01*
X119265Y142509D01*
X119571Y142667D01*
X119580Y142676D01*
X119608Y142685D01*
X119654Y142703D01*
X119719Y142731D01*
X119802Y142759D01*
X119894Y142796D01*
X120005Y142833D01*
X120125Y142870D01*
X120264Y142907D01*
X120412Y142935D01*
X120569Y142972D01*
X120736Y142999D01*
X121096Y143046D01*
X121290Y143064D01*
X121568D01*
X121660Y143055D01*
D02*
G37*
G36*
X73611Y130000D02*
X71161D01*
Y139236D01*
X71142Y139218D01*
X71096Y139181D01*
X71022Y139116D01*
X70920Y139033D01*
X70791Y138931D01*
X70634Y138811D01*
X70458Y138672D01*
X70255Y138534D01*
X70033Y138386D01*
X69792Y138229D01*
X69533Y138071D01*
X69256Y137923D01*
X68960Y137775D01*
X68646Y137628D01*
X68322Y137498D01*
X67989Y137378D01*
Y139606D01*
X67999D01*
X68036Y139625D01*
X68082Y139643D01*
X68156Y139671D01*
X68248Y139708D01*
X68350Y139745D01*
X68470Y139800D01*
X68609Y139865D01*
X68757Y139948D01*
X68914Y140031D01*
X69090Y140124D01*
X69265Y140235D01*
X69459Y140355D01*
X69654Y140485D01*
X69857Y140632D01*
X70070Y140790D01*
X70079Y140799D01*
X70116Y140827D01*
X70181Y140882D01*
X70255Y140947D01*
X70347Y141030D01*
X70449Y141132D01*
X70560Y141243D01*
X70689Y141372D01*
X70809Y141520D01*
X70939Y141677D01*
X71068Y141844D01*
X71198Y142029D01*
X71318Y142213D01*
X71429Y142417D01*
X71530Y142629D01*
X71614Y142842D01*
X73611D01*
Y130000D01*
D02*
G37*
G36*
X198346Y143055D02*
X198447D01*
X198577Y143036D01*
X198715Y143018D01*
X198882Y142999D01*
X199048Y142962D01*
X199242Y142916D01*
X199436Y142861D01*
X199631Y142796D01*
X199834Y142713D01*
X200037Y142620D01*
X200232Y142509D01*
X200426Y142389D01*
X200611Y142241D01*
X200620Y142232D01*
X200657Y142204D01*
X200703Y142158D01*
X200768Y142093D01*
X200842Y142010D01*
X200925Y141899D01*
X201027Y141779D01*
X201128Y141640D01*
X201230Y141483D01*
X201332Y141307D01*
X201434Y141113D01*
X201535Y140901D01*
X201628Y140679D01*
X201711Y140429D01*
X201785Y140161D01*
X201840Y139883D01*
X199464Y139625D01*
Y139634D01*
Y139652D01*
X199455Y139689D01*
X199446Y139745D01*
X199427Y139800D01*
X199418Y139874D01*
X199372Y140031D01*
X199307Y140207D01*
X199233Y140383D01*
X199131Y140549D01*
X199002Y140697D01*
X198983Y140716D01*
X198937Y140753D01*
X198854Y140808D01*
X198752Y140873D01*
X198614Y140938D01*
X198447Y140993D01*
X198262Y141030D01*
X198050Y141048D01*
X197976D01*
X197920Y141039D01*
X197855Y141030D01*
X197772Y141011D01*
X197689Y140993D01*
X197597Y140965D01*
X197495Y140928D01*
X197384Y140873D01*
X197282Y140817D01*
X197171Y140753D01*
X197060Y140669D01*
X196949Y140577D01*
X196838Y140466D01*
X196737Y140346D01*
X196728Y140337D01*
X196718Y140309D01*
X196691Y140272D01*
X196654Y140207D01*
X196607Y140115D01*
X196561Y140013D01*
X196506Y139883D01*
X196450Y139726D01*
X196395Y139542D01*
X196339Y139329D01*
X196284Y139098D01*
X196228Y138829D01*
X196173Y138534D01*
X196127Y138201D01*
X196090Y137840D01*
X196062Y137443D01*
X196071Y137452D01*
X196108Y137489D01*
X196154Y137544D01*
X196228Y137609D01*
X196311Y137692D01*
X196422Y137785D01*
X196552Y137886D01*
X196691Y137988D01*
X196848Y138090D01*
X197023Y138192D01*
X197208Y138284D01*
X197412Y138367D01*
X197624Y138432D01*
X197846Y138488D01*
X198087Y138524D01*
X198336Y138534D01*
X198401D01*
X198484Y138524D01*
X198595Y138515D01*
X198725Y138497D01*
X198882Y138469D01*
X199057Y138432D01*
X199242Y138386D01*
X199446Y138321D01*
X199658Y138247D01*
X199880Y138155D01*
X200102Y138034D01*
X200324Y137905D01*
X200546Y137748D01*
X200759Y137563D01*
X200971Y137360D01*
X200980Y137350D01*
X201017Y137304D01*
X201073Y137239D01*
X201147Y137147D01*
X201230Y137027D01*
X201323Y136888D01*
X201415Y136731D01*
X201526Y136546D01*
X201628Y136333D01*
X201720Y136102D01*
X201813Y135852D01*
X201896Y135594D01*
X201970Y135298D01*
X202025Y135002D01*
X202062Y134678D01*
X202071Y134336D01*
Y134327D01*
Y134318D01*
Y134290D01*
Y134253D01*
Y134207D01*
X202062Y134151D01*
X202053Y134013D01*
X202034Y133846D01*
X202007Y133652D01*
X201979Y133439D01*
X201924Y133208D01*
X201868Y132959D01*
X201794Y132700D01*
X201692Y132441D01*
X201581Y132173D01*
X201452Y131914D01*
X201295Y131655D01*
X201119Y131415D01*
X200916Y131183D01*
X200907Y131174D01*
X200860Y131137D01*
X200796Y131073D01*
X200703Y130998D01*
X200592Y130906D01*
X200453Y130814D01*
X200296Y130703D01*
X200111Y130592D01*
X199908Y130481D01*
X199686Y130379D01*
X199446Y130277D01*
X199178Y130185D01*
X198900Y130111D01*
X198604Y130056D01*
X198290Y130009D01*
X197957Y130000D01*
X197874D01*
X197828Y130009D01*
X197772D01*
X197634Y130028D01*
X197467Y130046D01*
X197273Y130083D01*
X197060Y130129D01*
X196829Y130185D01*
X196580Y130268D01*
X196330Y130370D01*
X196062Y130490D01*
X195794Y130629D01*
X195526Y130804D01*
X195267Y131008D01*
X195008Y131239D01*
X194767Y131498D01*
X194758Y131516D01*
X194712Y131572D01*
X194684Y131609D01*
X194657Y131664D01*
X194620Y131720D01*
X194573Y131784D01*
X194527Y131868D01*
X194481Y131951D01*
X194425Y132052D01*
X194379Y132154D01*
X194324Y132274D01*
X194268Y132395D01*
X194203Y132533D01*
X194148Y132681D01*
X194093Y132838D01*
X194037Y133005D01*
X193972Y133181D01*
X193917Y133365D01*
X193871Y133560D01*
X193815Y133772D01*
X193769Y133985D01*
X193723Y134216D01*
X193676Y134456D01*
X193640Y134706D01*
X193612Y134965D01*
X193584Y135242D01*
X193556Y135520D01*
X193547Y135815D01*
X193528Y136121D01*
Y136435D01*
Y136444D01*
Y136472D01*
Y136527D01*
Y136592D01*
X193538Y136675D01*
Y136768D01*
Y136879D01*
X193547Y137008D01*
X193556Y137147D01*
X193566Y137295D01*
X193584Y137461D01*
X193593Y137628D01*
X193640Y137997D01*
X193695Y138386D01*
X193760Y138793D01*
X193843Y139218D01*
X193954Y139634D01*
X194074Y140059D01*
X194222Y140457D01*
X194398Y140836D01*
X194490Y141021D01*
X194592Y141187D01*
X194703Y141354D01*
X194823Y141502D01*
X194841Y141520D01*
X194888Y141566D01*
X194962Y141649D01*
X195063Y141742D01*
X195193Y141862D01*
X195350Y142001D01*
X195526Y142140D01*
X195738Y142287D01*
X195969Y142426D01*
X196219Y142574D01*
X196496Y142703D01*
X196801Y142824D01*
X197125Y142916D01*
X197467Y142999D01*
X197828Y143046D01*
X198207Y143064D01*
X198272D01*
X198346Y143055D01*
D02*
G37*
G36*
X176135Y140559D02*
X171512D01*
X171115Y138377D01*
X171124Y138386D01*
X171152Y138395D01*
X171198Y138413D01*
X171254Y138441D01*
X171337Y138469D01*
X171420Y138506D01*
X171522Y138543D01*
X171633Y138589D01*
X171753Y138626D01*
X171891Y138663D01*
X172169Y138728D01*
X172483Y138774D01*
X172640Y138793D01*
X172871D01*
X172955Y138783D01*
X173066Y138774D01*
X173214Y138756D01*
X173371Y138728D01*
X173556Y138691D01*
X173750Y138645D01*
X173962Y138580D01*
X174184Y138506D01*
X174416Y138404D01*
X174647Y138293D01*
X174887Y138155D01*
X175118Y137997D01*
X175340Y137812D01*
X175562Y137600D01*
X175571Y137591D01*
X175608Y137544D01*
X175664Y137480D01*
X175738Y137387D01*
X175830Y137267D01*
X175923Y137119D01*
X176024Y136953D01*
X176135Y136768D01*
X176237Y136555D01*
X176339Y136324D01*
X176440Y136065D01*
X176523Y135797D01*
X176597Y135501D01*
X176653Y135187D01*
X176690Y134863D01*
X176699Y134512D01*
Y134493D01*
Y134438D01*
X176690Y134355D01*
X176681Y134244D01*
X176672Y134105D01*
X176653Y133948D01*
X176625Y133763D01*
X176588Y133569D01*
X176533Y133356D01*
X176477Y133125D01*
X176403Y132894D01*
X176311Y132654D01*
X176200Y132413D01*
X176080Y132173D01*
X175941Y131932D01*
X175775Y131692D01*
X175756Y131673D01*
X175719Y131618D01*
X175645Y131535D01*
X175543Y131424D01*
X175423Y131304D01*
X175266Y131156D01*
X175081Y131008D01*
X174878Y130851D01*
X174647Y130684D01*
X174388Y130536D01*
X174101Y130388D01*
X173796Y130268D01*
X173463Y130157D01*
X173103Y130074D01*
X172724Y130019D01*
X172520Y130009D01*
X172317Y130000D01*
X172243D01*
X172150Y130009D01*
X172021Y130019D01*
X171873Y130028D01*
X171697Y130046D01*
X171503Y130083D01*
X171290Y130120D01*
X171069Y130166D01*
X170837Y130231D01*
X170597Y130305D01*
X170357Y130398D01*
X170116Y130508D01*
X169876Y130629D01*
X169645Y130777D01*
X169432Y130943D01*
X169423Y130952D01*
X169386Y130989D01*
X169331Y131045D01*
X169256Y131119D01*
X169164Y131211D01*
X169072Y131331D01*
X168961Y131461D01*
X168850Y131618D01*
X168729Y131794D01*
X168619Y131988D01*
X168508Y132191D01*
X168397Y132422D01*
X168304Y132663D01*
X168221Y132931D01*
X168147Y133199D01*
X168101Y133495D01*
X170542Y133754D01*
Y133744D01*
X170551Y133717D01*
Y133671D01*
X170569Y133615D01*
X170579Y133550D01*
X170597Y133467D01*
X170653Y133282D01*
X170736Y133069D01*
X170847Y132848D01*
X170976Y132635D01*
X171059Y132533D01*
X171152Y132441D01*
X171161Y132432D01*
X171180Y132422D01*
X171207Y132395D01*
X171244Y132367D01*
X171290Y132330D01*
X171355Y132293D01*
X171494Y132200D01*
X171670Y132108D01*
X171873Y132034D01*
X172104Y131979D01*
X172224Y131969D01*
X172344Y131960D01*
X172418D01*
X172474Y131969D01*
X172539Y131979D01*
X172613Y131997D01*
X172798Y132034D01*
X173001Y132108D01*
X173103Y132163D01*
X173214Y132219D01*
X173325Y132293D01*
X173435Y132376D01*
X173537Y132469D01*
X173639Y132579D01*
X173648Y132589D01*
X173667Y132607D01*
X173685Y132644D01*
X173722Y132700D01*
X173759Y132764D01*
X173805Y132848D01*
X173861Y132940D01*
X173907Y133051D01*
X173953Y133181D01*
X174009Y133319D01*
X174055Y133476D01*
X174092Y133643D01*
X174129Y133828D01*
X174157Y134031D01*
X174166Y134244D01*
X174175Y134475D01*
Y134484D01*
Y134530D01*
Y134586D01*
X174166Y134669D01*
X174157Y134771D01*
X174147Y134882D01*
X174129Y135002D01*
X174110Y135140D01*
X174046Y135427D01*
X174000Y135575D01*
X173953Y135723D01*
X173889Y135871D01*
X173815Y136000D01*
X173731Y136130D01*
X173639Y136250D01*
X173630Y136259D01*
X173611Y136278D01*
X173583Y136306D01*
X173547Y136342D01*
X173491Y136389D01*
X173426Y136435D01*
X173352Y136490D01*
X173269Y136546D01*
X173177Y136601D01*
X173075Y136657D01*
X172844Y136749D01*
X172705Y136786D01*
X172576Y136814D01*
X172428Y136833D01*
X172271Y136842D01*
X172224D01*
X172169Y136833D01*
X172095Y136823D01*
X172002Y136814D01*
X171891Y136796D01*
X171771Y136768D01*
X171642Y136721D01*
X171494Y136675D01*
X171346Y136611D01*
X171189Y136537D01*
X171022Y136444D01*
X170865Y136342D01*
X170699Y136213D01*
X170532Y136074D01*
X170375Y135908D01*
X168397Y136194D01*
X169654Y142851D01*
X176135D01*
Y140559D01*
D02*
G37*
G36*
X227393Y140845D02*
X227384Y140836D01*
X227347Y140799D01*
X227291Y140734D01*
X227217Y140651D01*
X227115Y140549D01*
X227005Y140420D01*
X226875Y140272D01*
X226737Y140096D01*
X226579Y139893D01*
X226413Y139680D01*
X226246Y139440D01*
X226061Y139172D01*
X225867Y138885D01*
X225673Y138580D01*
X225479Y138256D01*
X225276Y137905D01*
Y137896D01*
X225266Y137886D01*
X225248Y137859D01*
X225229Y137822D01*
X225202Y137775D01*
X225174Y137711D01*
X225137Y137646D01*
X225100Y137572D01*
X225007Y137396D01*
X224906Y137184D01*
X224795Y136943D01*
X224665Y136675D01*
X224536Y136389D01*
X224407Y136074D01*
X224268Y135732D01*
X224129Y135381D01*
X224000Y135011D01*
X223870Y134632D01*
X223750Y134235D01*
X223639Y133837D01*
Y133828D01*
X223630Y133809D01*
Y133781D01*
X223611Y133744D01*
X223602Y133689D01*
X223593Y133624D01*
X223575Y133560D01*
X223556Y133476D01*
X223510Y133291D01*
X223463Y133069D01*
X223417Y132820D01*
X223362Y132552D01*
X223316Y132265D01*
X223260Y131960D01*
X223214Y131636D01*
X223177Y131313D01*
X223140Y130980D01*
X223112Y130647D01*
X223103Y130324D01*
X223094Y130000D01*
X220727D01*
Y130009D01*
Y130028D01*
Y130065D01*
X220736Y130120D01*
Y130185D01*
Y130259D01*
X220745Y130351D01*
X220755Y130462D01*
X220764Y130573D01*
X220773Y130703D01*
X220782Y130841D01*
X220801Y130989D01*
X220819Y131146D01*
X220838Y131313D01*
X220884Y131673D01*
X220949Y132062D01*
X221013Y132487D01*
X221106Y132931D01*
X221208Y133402D01*
X221337Y133883D01*
X221476Y134382D01*
X221633Y134891D01*
X221818Y135409D01*
Y135418D01*
X221827Y135436D01*
X221845Y135483D01*
X221864Y135529D01*
X221892Y135603D01*
X221929Y135677D01*
X221966Y135769D01*
X222003Y135871D01*
X222058Y135991D01*
X222114Y136121D01*
X222169Y136250D01*
X222234Y136398D01*
X222382Y136712D01*
X222548Y137064D01*
X222742Y137434D01*
X222946Y137831D01*
X223177Y138238D01*
X223417Y138663D01*
X223685Y139088D01*
X223963Y139514D01*
X224268Y139939D01*
X224582Y140355D01*
X219007D01*
Y142629D01*
X227393D01*
Y140845D01*
D02*
G37*
G36*
X248729Y143064D02*
X248859Y143055D01*
X249007Y143046D01*
X249182Y143027D01*
X249377Y142990D01*
X249589Y142953D01*
X249811Y142907D01*
X250042Y142842D01*
X250283Y142768D01*
X250514Y142676D01*
X250745Y142565D01*
X250976Y142445D01*
X251189Y142297D01*
X251383Y142130D01*
X251392Y142121D01*
X251429Y142084D01*
X251475Y142038D01*
X251540Y141964D01*
X251623Y141871D01*
X251707Y141760D01*
X251799Y141631D01*
X251891Y141483D01*
X251984Y141326D01*
X252076Y141141D01*
X252169Y140947D01*
X252243Y140743D01*
X252307Y140521D01*
X252354Y140281D01*
X252391Y140031D01*
X252400Y139773D01*
Y139763D01*
Y139736D01*
Y139689D01*
X252391Y139625D01*
X252381Y139542D01*
X252372Y139449D01*
X252363Y139347D01*
X252344Y139236D01*
X252289Y138987D01*
X252206Y138728D01*
X252150Y138589D01*
X252086Y138450D01*
X252012Y138312D01*
X251928Y138182D01*
X251919Y138173D01*
X251910Y138155D01*
X251882Y138118D01*
X251845Y138071D01*
X251799Y138007D01*
X251734Y137942D01*
X251670Y137868D01*
X251596Y137794D01*
X251503Y137711D01*
X251411Y137618D01*
X251300Y137535D01*
X251189Y137443D01*
X250930Y137276D01*
X250634Y137128D01*
X250643Y137119D01*
X250680Y137110D01*
X250736Y137082D01*
X250810Y137045D01*
X250902Y136999D01*
X251004Y136943D01*
X251115Y136879D01*
X251235Y136805D01*
X251364Y136721D01*
X251494Y136629D01*
X251633Y136527D01*
X251762Y136416D01*
X251901Y136296D01*
X252021Y136158D01*
X252141Y136019D01*
X252252Y135871D01*
X252261Y135862D01*
X252280Y135834D01*
X252307Y135788D01*
X252335Y135723D01*
X252381Y135649D01*
X252428Y135557D01*
X252474Y135455D01*
X252529Y135335D01*
X252585Y135196D01*
X252631Y135057D01*
X252677Y134900D01*
X252724Y134734D01*
X252751Y134558D01*
X252779Y134373D01*
X252798Y134179D01*
X252807Y133985D01*
Y133976D01*
Y133966D01*
Y133939D01*
Y133911D01*
X252798Y133818D01*
X252788Y133689D01*
X252770Y133541D01*
X252751Y133365D01*
X252714Y133171D01*
X252668Y132959D01*
X252603Y132737D01*
X252529Y132496D01*
X252437Y132265D01*
X252326Y132015D01*
X252197Y131775D01*
X252049Y131544D01*
X251873Y131313D01*
X251670Y131100D01*
X251660Y131091D01*
X251614Y131054D01*
X251549Y130998D01*
X251466Y130925D01*
X251355Y130841D01*
X251217Y130749D01*
X251050Y130656D01*
X250874Y130555D01*
X250671Y130444D01*
X250440Y130351D01*
X250190Y130259D01*
X249922Y130176D01*
X249636Y130102D01*
X249330Y130046D01*
X249007Y130009D01*
X248665Y130000D01*
X248591D01*
X248498Y130009D01*
X248378Y130019D01*
X248221Y130028D01*
X248055Y130046D01*
X247860Y130074D01*
X247648Y130111D01*
X247426Y130166D01*
X247185Y130222D01*
X246945Y130296D01*
X246705Y130388D01*
X246455Y130490D01*
X246215Y130610D01*
X245984Y130758D01*
X245762Y130915D01*
X245743Y130925D01*
X245706Y130962D01*
X245632Y131026D01*
X245549Y131110D01*
X245447Y131220D01*
X245327Y131359D01*
X245207Y131516D01*
X245077Y131692D01*
X244948Y131895D01*
X244828Y132117D01*
X244708Y132358D01*
X244606Y132617D01*
X244523Y132903D01*
X244449Y133208D01*
X244412Y133532D01*
X244393Y133874D01*
Y133883D01*
Y133920D01*
Y133976D01*
X244403Y134050D01*
X244412Y134142D01*
X244421Y134253D01*
X244440Y134373D01*
X244458Y134503D01*
X244486Y134650D01*
X244513Y134798D01*
X244606Y135122D01*
X244671Y135288D01*
X244735Y135455D01*
X244809Y135621D01*
X244902Y135788D01*
X244911Y135797D01*
X244930Y135825D01*
X244957Y135871D01*
X245004Y135936D01*
X245059Y136000D01*
X245124Y136084D01*
X245207Y136185D01*
X245299Y136278D01*
X245401Y136389D01*
X245521Y136500D01*
X245660Y136611D01*
X245799Y136721D01*
X245965Y136833D01*
X246131Y136934D01*
X246316Y137036D01*
X246520Y137128D01*
X246511Y137138D01*
X246483Y137147D01*
X246427Y137175D01*
X246363Y137202D01*
X246289Y137239D01*
X246196Y137295D01*
X246104Y137350D01*
X245993Y137415D01*
X245771Y137572D01*
X245540Y137757D01*
X245327Y137979D01*
X245225Y138099D01*
X245142Y138229D01*
Y138238D01*
X245124Y138256D01*
X245105Y138302D01*
X245077Y138349D01*
X245040Y138413D01*
X245004Y138497D01*
X244967Y138589D01*
X244930Y138682D01*
X244893Y138793D01*
X244855Y138913D01*
X244782Y139181D01*
X244735Y139467D01*
X244726Y139615D01*
X244717Y139773D01*
Y139791D01*
Y139837D01*
X244726Y139911D01*
X244735Y140013D01*
X244745Y140133D01*
X244772Y140272D01*
X244800Y140429D01*
X244846Y140605D01*
X244893Y140780D01*
X244957Y140975D01*
X245040Y141169D01*
X245142Y141372D01*
X245253Y141566D01*
X245382Y141760D01*
X245540Y141955D01*
X245715Y142130D01*
X245725Y142140D01*
X245762Y142167D01*
X245817Y142213D01*
X245900Y142278D01*
X246002Y142352D01*
X246131Y142426D01*
X246279Y142519D01*
X246446Y142602D01*
X246640Y142694D01*
X246843Y142777D01*
X247084Y142851D01*
X247333Y142925D01*
X247611Y142990D01*
X247907Y143036D01*
X248221Y143064D01*
X248554Y143073D01*
X248637D01*
X248729Y143064D01*
D02*
G37*
%LPC*%
G36*
X147633Y139079D02*
X144693Y134715D01*
X147633D01*
Y139079D01*
D02*
G37*
G36*
X197957Y136731D02*
X197892D01*
X197837Y136721D01*
X197782Y136712D01*
X197708Y136703D01*
X197541Y136657D01*
X197347Y136592D01*
X197255Y136546D01*
X197153Y136490D01*
X197051Y136426D01*
X196949Y136352D01*
X196848Y136269D01*
X196755Y136167D01*
X196746Y136158D01*
X196737Y136139D01*
X196709Y136111D01*
X196681Y136065D01*
X196644Y136010D01*
X196607Y135936D01*
X196561Y135852D01*
X196515Y135751D01*
X196469Y135649D01*
X196422Y135520D01*
X196385Y135390D01*
X196348Y135242D01*
X196321Y135085D01*
X196293Y134909D01*
X196284Y134725D01*
X196275Y134530D01*
Y134521D01*
Y134475D01*
Y134419D01*
X196284Y134336D01*
X196293Y134235D01*
X196302Y134114D01*
X196321Y133985D01*
X196339Y133846D01*
X196404Y133550D01*
X196450Y133393D01*
X196506Y133245D01*
X196570Y133088D01*
X196644Y132949D01*
X196728Y132811D01*
X196820Y132681D01*
X196829Y132672D01*
X196848Y132654D01*
X196875Y132626D01*
X196912Y132579D01*
X196968Y132533D01*
X197033Y132478D01*
X197097Y132422D01*
X197181Y132358D01*
X197365Y132237D01*
X197578Y132136D01*
X197698Y132090D01*
X197819Y132062D01*
X197948Y132043D01*
X198077Y132034D01*
X198142D01*
X198188Y132043D01*
X198244Y132052D01*
X198318Y132062D01*
X198475Y132099D01*
X198651Y132163D01*
X198743Y132210D01*
X198836Y132256D01*
X198937Y132321D01*
X199030Y132385D01*
X199122Y132469D01*
X199205Y132561D01*
X199215Y132570D01*
X199224Y132589D01*
X199252Y132617D01*
X199279Y132663D01*
X199316Y132718D01*
X199353Y132792D01*
X199390Y132885D01*
X199436Y132977D01*
X199483Y133097D01*
X199520Y133227D01*
X199557Y133365D01*
X199594Y133523D01*
X199621Y133698D01*
X199649Y133883D01*
X199658Y134087D01*
X199668Y134308D01*
Y134327D01*
Y134364D01*
Y134429D01*
X199658Y134512D01*
X199649Y134614D01*
X199640Y134734D01*
X199631Y134872D01*
X199603Y135011D01*
X199547Y135307D01*
X199464Y135612D01*
X199409Y135760D01*
X199344Y135899D01*
X199261Y136028D01*
X199178Y136148D01*
X199168Y136158D01*
X199159Y136176D01*
X199131Y136204D01*
X199094Y136241D01*
X199039Y136287D01*
X198983Y136333D01*
X198919Y136389D01*
X198845Y136444D01*
X198669Y136546D01*
X198456Y136638D01*
X198346Y136675D01*
X198216Y136703D01*
X198096Y136721D01*
X197957Y136731D01*
D02*
G37*
G36*
X248711Y141132D02*
X248517D01*
X248461Y141123D01*
X248406D01*
X248332Y141113D01*
X248175Y141076D01*
X247990Y141030D01*
X247805Y140956D01*
X247620Y140845D01*
X247537Y140780D01*
X247454Y140706D01*
X247435Y140688D01*
X247417Y140660D01*
X247389Y140632D01*
X247324Y140540D01*
X247250Y140410D01*
X247167Y140253D01*
X247102Y140059D01*
X247056Y139847D01*
X247047Y139726D01*
X247038Y139597D01*
Y139588D01*
Y139569D01*
Y139523D01*
X247047Y139477D01*
Y139412D01*
X247056Y139338D01*
X247093Y139181D01*
X247139Y138996D01*
X247213Y138802D01*
X247315Y138617D01*
X247370Y138534D01*
X247444Y138450D01*
X247454D01*
X247463Y138432D01*
X247491Y138413D01*
X247518Y138386D01*
X247611Y138321D01*
X247740Y138247D01*
X247897Y138173D01*
X248092Y138108D01*
X248304Y138062D01*
X248424Y138053D01*
X248554Y138044D01*
X248619D01*
X248674Y138053D01*
X248729D01*
X248794Y138062D01*
X248961Y138099D01*
X249136Y138145D01*
X249321Y138219D01*
X249506Y138321D01*
X249589Y138377D01*
X249673Y138450D01*
X249682Y138460D01*
X249691Y138469D01*
X249709Y138497D01*
X249737Y138524D01*
X249811Y138617D01*
X249885Y138756D01*
X249959Y138913D01*
X250033Y139116D01*
X250079Y139347D01*
X250098Y139467D01*
Y139606D01*
Y139615D01*
Y139634D01*
Y139671D01*
X250089Y139717D01*
Y139782D01*
X250079Y139847D01*
X250042Y140004D01*
X249996Y140179D01*
X249922Y140364D01*
X249820Y140549D01*
X249756Y140632D01*
X249682Y140716D01*
Y140725D01*
X249663Y140734D01*
X249636Y140753D01*
X249608Y140780D01*
X249515Y140845D01*
X249386Y140928D01*
X249229Y141002D01*
X249044Y141067D01*
X248822Y141113D01*
X248711Y141132D01*
D02*
G37*
G36*
X248591Y136084D02*
X248508D01*
X248443Y136074D01*
X248369Y136065D01*
X248276Y136047D01*
X248082Y136010D01*
X247860Y135926D01*
X247749Y135880D01*
X247638Y135815D01*
X247528Y135751D01*
X247426Y135658D01*
X247333Y135566D01*
X247241Y135455D01*
Y135446D01*
X247222Y135427D01*
X247204Y135390D01*
X247176Y135344D01*
X247139Y135288D01*
X247102Y135224D01*
X247065Y135140D01*
X247028Y135057D01*
X246945Y134854D01*
X246871Y134632D01*
X246825Y134382D01*
X246816Y134253D01*
X246806Y134114D01*
Y134105D01*
Y134068D01*
Y134013D01*
X246816Y133948D01*
X246825Y133865D01*
X246834Y133763D01*
X246853Y133652D01*
X246871Y133532D01*
X246936Y133282D01*
X247028Y133014D01*
X247084Y132885D01*
X247158Y132764D01*
X247232Y132644D01*
X247324Y132533D01*
X247333Y132524D01*
X247352Y132506D01*
X247380Y132478D01*
X247417Y132450D01*
X247472Y132404D01*
X247528Y132358D01*
X247602Y132302D01*
X247685Y132256D01*
X247870Y132145D01*
X248092Y132062D01*
X248212Y132025D01*
X248341Y131997D01*
X248480Y131979D01*
X248619Y131969D01*
X248692D01*
X248748Y131979D01*
X248813Y131988D01*
X248887Y131997D01*
X249062Y132034D01*
X249266Y132099D01*
X249367Y132145D01*
X249478Y132200D01*
X249580Y132265D01*
X249691Y132339D01*
X249793Y132422D01*
X249885Y132515D01*
X249894Y132524D01*
X249904Y132542D01*
X249931Y132570D01*
X249959Y132617D01*
X250005Y132672D01*
X250042Y132746D01*
X250089Y132820D01*
X250135Y132912D01*
X250181Y133023D01*
X250227Y133134D01*
X250273Y133264D01*
X250310Y133412D01*
X250338Y133560D01*
X250366Y133726D01*
X250375Y133902D01*
X250384Y134087D01*
Y134096D01*
Y134123D01*
Y134170D01*
X250375Y134235D01*
X250366Y134308D01*
X250357Y134401D01*
X250338Y134493D01*
X250320Y134604D01*
X250264Y134835D01*
X250172Y135076D01*
X250116Y135196D01*
X250042Y135307D01*
X249968Y135427D01*
X249876Y135529D01*
X249867Y135538D01*
X249857Y135557D01*
X249820Y135584D01*
X249783Y135612D01*
X249737Y135658D01*
X249673Y135704D01*
X249608Y135751D01*
X249525Y135806D01*
X249340Y135908D01*
X249118Y136000D01*
X248998Y136028D01*
X248868Y136056D01*
X248729Y136074D01*
X248591Y136084D01*
D02*
G37*
%LPD*%
D10*
X15000Y136421D02*
X25000D01*
X45400Y131421D02*
Y141421D01*
X40400Y136421D02*
X50400D01*
D11*
X89750Y190664D02*
X89250D01*
X89500D01*
Y189414D01*
X89250Y189164D01*
X89000D01*
X88750Y189414D01*
X91250Y189164D02*
X90250D01*
X91250Y190164D01*
Y190414D01*
X91000Y190664D01*
X90500D01*
X90250Y190414D01*
X134350Y100750D02*
X133850D01*
X134100D01*
Y99500D01*
X133850Y99250D01*
X133600D01*
X133350Y99500D01*
X134850Y99250D02*
X135349D01*
X135099D01*
Y100750D01*
X134850Y100500D01*
M02*
