M48
;Layer_Color=9474304
;FILE_FORMAT=2:5
INCH,LZ
;TYPE=PLATED
T01F00S00C0.00787
T03F00S00C0.04000
%
T01
X000689Y0057087
X001378Y0056102
X0014764Y0060039
X0021654Y0061024
X0018701Y0063976
X0028543
Y0061024
X0030512Y0058071
X0033465Y0056102
X0019685Y0055118
X0007874Y0065945
X0014764Y007874
X0041142Y0083661
X0043307Y0070866
X0045276Y0066339
T03
X0007874Y0045276
X0017874
X0027874
X0037874
X0047874
X0057874
X0067874
X0077874
X0087874
X0097874
M30
